<?xml version="1.0" standalone="no"?>
<!DOCTYPE svg PUBLIC "-//W3C//DTD SVG 20010904//EN"
 "http://www.w3.org/TR/2001/REC-SVG-20010904/DTD/svg10.dtd">
<svg version="1.0" xmlns="http://www.w3.org/2000/svg"
 width="1500.000000pt" height="1500.000000pt" viewBox="0 0 1500.000000 1500.000000"
 preserveAspectRatio="xMidYMid meet">
<metadata>
Created by potrace 1.11, written by Peter Selinger 2001-2013
</metadata>
<g transform="translate(0.000000,1500.000000) scale(0.100000,-0.100000)"
fill="#000000" stroke="none">
<path d="M7738 14260 c-36 -11 -96 -48 -100 -62 -3 -8 -10 -8 -24 0 -29 15
-414 28 -414 14 0 -8 -27 -11 -76 -10 -46 1 -78 -3 -82 -9 -7 -12 -90 -29
-182 -39 -45 -5 -123 -35 -140 -53 -3 -4 -25 -17 -50 -30 -25 -13 -58 -35 -73
-48 -16 -13 -33 -21 -38 -18 -4 3 -11 -6 -15 -20 -10 -39 -24 -30 -25 18 -1
23 -5 56 -10 72 -5 18 -6 -51 -3 -165 5 -200 7 -234 44 -713 l21 -278 -41 -56
c-144 -190 -171 -455 -70 -697 37 -88 109 -208 155 -256 39 -41 55 -70 56
-102 1 -18 2 -19 6 -5 6 22 13 21 138 -23 84 -31 95 -32 195 -28 91 4 114 9
173 36 142 65 256 220 306 415 10 43 22 82 26 85 3 3 16 0 28 -8 50 -31 287
-160 295 -160 5 0 78 43 162 95 84 53 159 94 165 91 7 -2 26 -45 44 -95 28
-81 81 -188 67 -136 -3 11 -8 34 -11 50 l-6 30 15 -32 c15 -34 34 -47 21 -15
-4 9 -13 55 -20 102 -21 137 -1 321 49 459 18 49 20 63 6 41 -5 -8 -12 -11
-15 -8 -11 11 44 103 96 162 79 88 179 150 277 171 39 8 42 -7 5 -23 -24 -10
-24 -10 -3 -4 41 11 162 3 215 -15 101 -33 193 -116 242 -218 37 -77 38 -86
21 -116 -10 -17 -10 -23 0 -26 6 -3 12 -16 12 -29 0 -13 5 -24 10 -24 6 0 10
11 10 25 0 14 -4 25 -10 25 -12 0 -13 37 -1 44 14 9 22 -22 25 -104 2 -41 2
-60 -1 -42 -2 18 -8 30 -14 27 -5 -4 -9 -1 -9 4 0 6 -5 10 -12 9 -6 -2 -19 18
-28 43 -24 64 -76 153 -109 187 -15 15 -63 45 -107 67 -71 35 -87 39 -157 40
-43 0 -81 -5 -85 -10 -4 -6 -22 -21 -40 -34 l-33 -23 21 -23 c27 -29 38 -121
20 -165 -18 -44 -52 -59 -109 -47 -52 10 -91 45 -91 80 0 13 19 50 41 83 39
56 40 58 9 29 -48 -45 -112 -131 -155 -210 -21 -38 -42 -72 -47 -75 -4 -3 -12
-39 -18 -79 -10 -71 -9 -77 24 -172 20 -55 47 -119 62 -144 74 -127 181 -200
311 -211 85 -8 131 6 230 68 153 96 241 258 250 460 6 123 22 135 25 20 1 -73
2 -74 8 -27 l7 50 1 -55 c1 -30 -3 -73 -9 -95 -7 -22 -12 -47 -13 -55 -8 -63
-77 -207 -135 -280 -23 -28 -41 -56 -41 -61 0 -5 -5 -9 -11 -9 -7 0 -23 -12
-36 -26 -15 -16 -18 -24 -9 -20 9 3 23 9 31 12 12 5 15 -2 15 -32 0 -57 -28
-334 -41 -409 -11 -62 -14 -68 -73 -121 -56 -51 -59 -55 -33 -52 l29 3 -2
-124 c-1 -95 2 -122 11 -119 7 2 19 27 26 54 18 67 58 319 78 489 33 285 30
272 73 328 66 87 108 159 144 247 47 111 60 187 59 331 -1 85 -6 122 -26 183
-29 89 -71 173 -117 234 -39 52 -38 12 -19 622 13 433 11 597 -10 585 -5 -4
-9 -15 -9 -26 0 -14 -4 -18 -12 -12 -7 4 -17 8 -23 8 -5 0 -10 10 -9 21 0 16
-5 20 -24 16 -16 -3 -28 2 -37 15 -8 11 -28 23 -44 26 -17 4 -39 15 -49 25
-32 32 -139 63 -275 80 -111 13 -130 14 -137 1 -7 -10 -12 -11 -21 -2 -23 23
-219 -7 -219 -34 0 -8 -12 -13 -28 -13 -16 0 -32 -3 -36 -7 -4 -5 -11 -8 -14
-8 -4 0 -22 -7 -40 -14 -29 -12 -35 -12 -43 0 -7 11 -9 10 -9 -6 0 -16 -2 -17
-10 -5 -10 16 -13 11 -23 -35 -4 -17 -5 -16 -6 4 -2 36 -48 91 -95 112 -43 20
-147 24 -198 9z m-623 -1279 c74 -37 144 -96 187 -160 21 -30 25 -41 12 -31
-10 8 -22 20 -26 25 -5 6 -8 6 -8 -2 0 -6 6 -18 13 -25 18 -19 57 -94 67 -128
12 -43 -15 -40 -54 7 -151 179 -264 241 -419 231 -145 -9 -208 -64 -233 -201
-15 -80 -19 -98 -33 -145 -5 -18 -10 -34 -11 -37 -1 -8 -11 -39 -22 -67 -11
-28 -34 -43 -43 -28 -22 36 7 278 36 295 12 8 12 35 0 35 -5 0 -12 -8 -15 -17
-3 -11 -4 -7 -3 7 1 14 6 28 11 32 5 3 9 20 9 38 0 22 11 42 36 69 70 73 131
101 271 125 108 19 148 15 225 -23z m285 -849 c-45 -140 -114 -225 -230 -283
-109 -55 -268 -52 -369 8 -28 16 -39 28 -31 33 8 5 3 14 -16 29 -40 31 -15 44
36 20 22 -11 43 -19 48 -19 5 0 24 -7 42 -17 43 -21 137 -20 183 2 20 9 41 14
47 10 5 -3 13 1 16 10 4 8 38 36 78 62 85 55 85 55 138 163 23 47 49 90 57 97
26 19 26 -37 1 -115z m4 -94 c-43 -84 -130 -177 -194 -207 -21 -10 -22 -9 -6
1 63 43 175 178 201 243 4 12 9 15 12 8 2 -6 -3 -27 -13 -45z"/>
<path d="M9131 12744 c0 -11 3 -14 6 -6 3 7 2 16 -1 19 -3 4 -6 -2 -5 -13z"/>
<path d="M6022 12350 c0 -14 2 -19 5 -12 2 6 2 18 0 25 -3 6 -5 1 -5 -13z"/>
<path d="M6033 12245 c0 -27 2 -38 4 -22 2 15 2 37 0 50 -2 12 -4 0 -4 -28z"/>
<path d="M6042 12155 c0 -16 2 -22 5 -12 2 9 2 23 0 30 -3 6 -5 -1 -5 -18z"/>
<path d="M6052 12040 c0 -14 2 -19 5 -12 2 6 2 18 0 25 -3 6 -5 1 -5 -13z"/>
<path d="M6720 11396 c0 -52 50 -339 62 -351 5 -6 7 12 3 45 -3 30 -10 104
-15 164 -7 71 -18 120 -31 144 l-19 37 0 -39z"/>
<path d="M7709 11380 c-86 -7 -112 -21 -107 -58 7 -56 136 -97 282 -90 88 4
109 9 164 37 62 31 71 45 52 81 -7 13 -25 20 -62 24 -96 9 -252 13 -329 6z"/>
<path d="M6770 11337 c0 -22 23 -44 53 -51 36 -9 34 3 -7 37 -39 30 -46 33
-46 14z"/>
<path d="M7148 10993 l-3 -98 -120 -2 c-152 -3 -280 -38 -280 -77 0 -20 83
-116 101 -116 20 0 17 -20 -3 -21 -11 0 -5 -5 12 -11 17 -6 35 -18 41 -26 7
-10 48 -19 120 -28 89 -11 96 -13 37 -10 -40 2 -73 0 -73 -4 0 -18 252 -25
985 -24 324 0 437 3 539 16 121 16 163 31 134 49 -7 4 -58 13 -115 20 l-103
12 -1 101 c-1 56 -4 133 -8 173 l-6 71 -40 -20 c-85 -42 -262 -109 -352 -134
-167 -45 -302 -29 -526 62 -102 42 -291 136 -311 155 -21 19 -25 5 -28 -88z
m-43 -302 c-34 -14 -125 -23 -125 -12 0 11 24 16 95 18 34 2 44 0 30 -6z"/>
<path d="M8595 10851 c-16 -3 -28 -9 -25 -13 4 -7 -4 -18 -39 -53 -5 -5 -24
-25 -40 -44 -19 -21 -36 -31 -46 -27 -8 3 -15 2 -15 -3 0 -23 35 -32 131 -34
l103 -2 18 48 18 48 -30 45 c-17 24 -34 43 -38 43 -4 -1 -20 -4 -37 -8z"/>
<path d="M6948 10603 c7 -3 16 -2 19 1 4 3 -2 6 -13 5 -11 0 -14 -3 -6 -6z"/>
<path d="M8905 10521 c-3 -6 -10 -9 -14 -6 -5 2 -11 -9 -15 -26 -9 -45 -7 -61
4 -54 6 3 10 0 10 -8 0 -20 14 -23 85 -22 l60 1 3 57 3 57 -50 0 c-27 0 -56 3
-64 6 -8 3 -18 0 -22 -5z"/>
<path d="M6726 10308 c13 -21 76 -41 187 -59 67 -10 151 -28 187 -39 159 -50
334 -77 543 -85 76 -3 142 -6 145 -7 4 -1 14 2 22 5 8 3 29 8 45 10 17 2 -8 5
-55 6 -144 4 -290 18 -415 40 -121 22 -138 26 -345 82 -155 42 -327 68 -314
47z"/>
<path d="M8675 10275 c-38 -7 -92 -20 -120 -28 -49 -15 -49 -16 -15 -16 66 -1
222 27 238 43 15 15 14 16 -8 15 -14 -1 -56 -7 -95 -14z"/>
<path d="M9000 10223 c0 -14 -2 -15 -9 -4 -5 7 -13 11 -17 8 -16 -9 -15 -201
1 -339 8 -73 24 -286 35 -473 11 -187 23 -348 26 -357 4 -14 17 -16 73 -14 37
2 73 6 80 10 6 4 11 3 11 -1 0 -5 15 -7 34 -5 39 5 56 32 56 92 0 37 2 39 35
46 69 13 73 9 179 -201 55 -107 116 -219 135 -249 20 -29 58 -86 85 -127 26
-41 61 -93 77 -116 28 -40 39 -81 19 -68 -11 7 -71 -35 -65 -45 2 -4 -1 -7 -8
-7 -20 0 -187 -125 -187 -140 0 -7 6 -10 16 -6 12 4 14 0 9 -19 -4 -16 -1 -30
8 -39 8 -8 20 -32 27 -54 20 -64 143 -285 232 -417 21 -31 38 -63 38 -70 0 -8
-19 -21 -42 -29 l-43 -16 0 -428 0 -428 60 -14 c159 -36 161 -37 195 -109 18
-36 30 -74 27 -85 -3 -10 -1 -22 5 -25 5 -4 3 -13 -6 -23 -21 -23 -46 -85 -46
-113 l1 -23 20 25 c11 14 40 54 63 90 49 76 79 95 177 116 85 18 170 8 269
-31 96 -38 146 -78 348 -284 301 -305 358 -386 335 -472 -12 -47 -2 -50 47
-16 48 32 69 73 91 180 74 362 113 934 89 1302 -33 521 -82 825 -161 996 -36
78 -59 102 -130 138 -51 26 -52 28 -173 246 -100 183 -131 230 -182 280 -71
70 -314 361 -756 905 -147 181 -174 208 -249 247 l-55 30 -253 1 c-242 2 -277
5 -267 21 3 3 0 27 -5 52 -7 31 -15 45 -27 46 -43 2 -206 24 -213 29 -5 3 -9
-3 -9 -13z m806 -175 c14 -14 13 -15 -10 -15 -14 0 -23 3 -20 8 8 14 -10 10
-32 -6 -26 -20 -32 -19 -37 8 l-4 22 -8 -24 c-8 -23 -9 -23 -15 -5 -4 10 -5
23 -2 28 8 13 111 1 128 -16z"/>
<path d="M9088 10233 c6 -2 18 -2 25 0 6 3 1 5 -13 5 -14 0 -19 -2 -12 -5z"/>
<path d="M6535 10213 c66 -10 39 -18 -55 -16 -57 1 -100 -2 -100 -8 0 -5 -3
-8 -7 -8 -24 4 -33 -5 -38 -38 -14 -79 1 -73 -180 -73 -90 0 -170 -3 -179 -6
-13 -5 -10 -12 17 -37 40 -38 24 -45 -38 -17 -51 23 -119 29 -174 15 -27 -6
-32 -5 -26 5 14 22 -37 0 -77 -34 -20 -17 -110 -114 -200 -216 -90 -101 -219
-245 -287 -320 -69 -74 -165 -180 -215 -235 -50 -54 -119 -129 -153 -167 -77
-83 -125 -156 -278 -426 -66 -116 -124 -211 -130 -210 -25 2 -36 -4 -74 -41
-22 -21 -42 -49 -45 -62 -3 -13 -17 -78 -31 -144 -63 -287 -73 -345 -99 -570
-42 -358 -47 -423 -48 -665 -1 -288 -1 -297 13 -379 20 -121 22 -136 26 -208
3 -42 1 -73 -5 -73 -5 0 -16 30 -25 68 -22 99 -20 34 3 -88 33 -170 70 -322
90 -366 10 -23 32 -51 48 -63 l30 -21 12 48 c19 79 87 156 428 485 172 166
257 228 351 257 120 38 255 18 319 -46 19 -19 37 -34 41 -34 4 0 31 24 60 54
43 44 69 60 142 87 l89 34 2 255 c2 140 2 334 0 430 -2 193 3 177 -73 231
l-22 15 85 150 c134 235 160 285 155 290 -3 3 15 37 39 77 24 39 44 76 44 82
0 11 -8 16 -70 44 l-25 11 25 -6 25 -6 -25 19 c-14 11 -59 44 -100 73 -41 29
-76 54 -78 55 -7 6 55 125 82 157 17 20 61 94 98 165 62 120 100 187 208 368
l45 75 76 0 77 0 4 -65 c2 -35 7 -68 11 -72 4 -4 49 -10 100 -13 51 -3 98 -9
104 -13 7 -4 14 0 17 10 15 48 36 240 36 338 0 61 7 256 14 435 8 179 11 345
8 370 l-7 45 -45 1 c-27 1 -33 0 -15 -3z m-2133 -1846 c-7 -12 -23 -53 -36
-92 -26 -75 -35 -78 -12 -4 18 59 49 129 55 124 2 -3 -1 -15 -7 -28z m1377
-15 c25 -21 57 -44 69 -51 13 -7 21 -15 18 -18 -4 -5 -166 66 -166 73 0 13 14
34 23 34 6 0 31 -17 56 -38z m-1432 -189 c-3 -10 -5 -4 -5 12 0 17 2 24 5 18
2 -7 2 -21 0 -30z"/>
<path d="M7385 9893 c-212 -28 -365 -167 -365 -332 0 -59 17 -101 64 -163 43
-56 130 -102 223 -118 36 -6 265 -11 570 -13 l508 -2 56 26 c31 15 72 43 92
62 43 44 73 127 63 179 -6 35 -7 35 -69 42 -34 3 -201 13 -372 22 -355 18
-345 15 -345 99 0 29 -3 86 -6 128 l-7 77 -191 -1 c-105 -1 -204 -4 -221 -6z"/>
<path d="M6468 7140 c-17 -39 -18 -88 -3 -104 19 -19 10 -43 -9 -27 -7 6 -15
8 -18 5 -3 -3 -23 2 -44 11 -38 15 -38 15 -66 -12 -25 -25 -30 -41 -44 -143
-21 -157 -19 -151 -72 -185 -28 -18 -54 -44 -64 -65 -37 -78 -44 -571 -18
-1235 11 -279 18 -337 44 -363 20 -20 121 -29 141 -12 13 11 15 7 15 -24 l0
-36 -49 0 c-39 0 -51 -4 -55 -18 -20 -61 -38 -275 -45 -517 l-9 -280 -31 -66
c-31 -65 -31 -67 -38 -270 -7 -227 4 -479 18 -441 5 13 9 81 10 151 0 70 4
133 9 141 6 10 10 -20 10 -85 1 -55 3 -155 5 -222 4 -100 2 -122 -10 -127 -21
-8 -20 -95 1 -124 9 -13 26 -22 42 -23 15 0 128 -4 252 -9 279 -11 871 -13
881 -3 4 5 12 35 18 67 6 33 18 67 26 76 18 20 19 37 3 43 -10 3 -10 9 0 26 6
11 12 42 12 68 0 27 5 64 11 83 11 36 28 223 31 345 2 51 -4 86 -20 128 -32
84 -29 110 18 165 40 49 45 82 14 107 -16 14 -26 89 -15 118 6 14 13 65 17
113 9 106 -6 107 -31 2 -10 -40 -22 -80 -27 -88 -14 -24 -3 598 11 643 10 31
16 37 39 37 15 0 37 7 48 15 21 14 21 18 17 402 -3 245 -1 393 5 402 8 12 66
16 294 21 193 5 287 4 296 -3 11 -9 13 -84 11 -404 -3 -290 0 -396 8 -404 7
-7 29 -15 50 -18 37 -6 38 -8 50 -61 13 -64 17 -643 4 -620 -5 8 -16 48 -26
88 -9 40 -22 75 -27 78 -11 7 -1 -145 13 -192 14 -46 5 -105 -19 -125 -16 -12
-18 -19 -9 -28 7 -7 8 -11 2 -9 -10 3 -15 -4 -15 -20 0 -5 18 -27 40 -50 47
-48 52 -90 19 -162 -28 -61 -28 -165 1 -380 6 -47 14 -116 16 -155 3 -38 10
-81 17 -94 9 -19 9 -25 0 -28 -17 -6 -16 -23 3 -44 8 -9 20 -46 26 -83 l11
-66 151 -2 c274 -3 728 3 875 13 168 11 172 13 168 99 -1 40 -6 54 -16 52 -11
-2 -12 13 -6 79 4 45 7 143 7 219 0 75 4 143 9 151 5 9 9 -47 10 -141 0 -85 4
-164 8 -175 16 -38 24 132 19 398 l-5 262 -30 66 c-30 66 -30 66 -37 305 -6
201 -35 526 -51 572 -3 7 -23 12 -55 12 l-50 0 0 36 c0 33 1 34 20 21 16 -11
33 -12 77 -5 32 5 61 14 65 21 31 48 44 283 54 1007 8 536 8 538 -73 617 -30
29 -58 51 -63 48 -8 -5 -20 57 -40 208 -13 101 -20 115 -59 109 -24 -3 -31 -1
-31 12 0 10 -4 15 -9 12 -5 -4 -21 -2 -35 4 -20 7 -26 6 -26 -3 0 -42 -175
-57 -778 -64 -485 -6 -503 -5 -517 13 -13 17 -14 18 -15 2 0 -17 -22 -18 -322
-18 -359 0 -765 14 -876 31 -40 6 -85 17 -100 25 -15 7 -32 14 -39 14 -7 0
-13 20 -15 53 -2 28 -6 45 -10 37z m2710 -117 c-10 -2 -18 -9 -18 -14 0 -5 -4
-9 -10 -9 -5 0 -7 7 -4 15 4 8 16 14 28 14 16 -1 17 -2 4 -6z m-38 -1177 c122
-28 115 -21 103 -90 l-6 -39 -16 44 -17 44 -507 -4 c-341 -3 -507 -1 -507 6 0
11 140 35 295 53 125 13 577 4 655 -14z m-2125 -1 c144 -9 272 -25 330 -40 62
-17 98 -16 -481 -15 l-481 1 -12 -42 c-7 -22 -14 -39 -15 -37 -2 1 -6 23 -10
48 l-7 46 88 19 c126 27 361 35 588 20z"/>
<path d="M9140 7109 c0 -17 4 -28 10 -24 6 3 10 17 10 31 0 13 -4 24 -10 24
-5 0 -10 -14 -10 -31z"/>
<path d="M4102 6445 c0 -16 2 -22 5 -12 2 9 2 23 0 30 -3 6 -5 -1 -5 -18z"/>
<path d="M10027 6323 c-4 -3 -7 -11 -7 -17 0 -6 5 -5 12 2 6 6 9 14 7 17 -3 3
-9 2 -12 -2z"/>
<path d="M9556 6264 c-3 -9 -6 -44 -6 -78 0 -50 6 -75 30 -122 16 -33 41 -71
56 -85 l26 -24 -10 25 c-5 14 -15 54 -22 90 -6 36 -15 69 -18 75 -7 11 -8 17
-10 58 -1 17 -8 27 -18 27 -12 0 -15 6 -10 25 7 27 -8 35 -18 9z"/>
<path d="M5996 6233 c4 -10 10 -58 14 -108 3 -62 7 -82 12 -65 16 52 -2 190
-24 190 -6 0 -7 -7 -2 -17z"/>
<path d="M9970 6216 c-15 -39 -12 -46 6 -13 9 16 13 31 10 34 -3 3 -10 -6 -16
-21z"/>
<path d="M5991 6184 c0 -11 3 -14 6 -6 3 7 2 16 -1 19 -3 4 -6 -2 -5 -13z"/>
<path d="M9940 6140 c-7 -17 -10 -33 -8 -36 3 -3 11 9 17 27 14 42 7 49 -9 9z"/>
<path d="M9910 6071 c0 -11 -4 -22 -9 -25 -11 -7 -36 -154 -27 -163 13 -14 24
14 34 92 5 44 13 88 17 98 4 10 3 17 -4 17 -6 0 -11 -9 -11 -19z"/>
<path d="M9911 5893 c-9 -30 -9 -47 2 -83 l14 -44 11 49 c23 105 23 115 3 115
-12 0 -22 -12 -30 -37z"/>
<path d="M8056 5414 c-9 -24 4 -223 15 -230 12 -7 11 217 0 234 -6 11 -10 10
-15 -4z"/>
<path d="M7516 5388 c-9 -35 -7 -208 3 -208 13 0 25 210 13 222 -6 6 -12 1
-16 -14z"/>
<path d="M7402 4855 c0 -16 2 -22 5 -12 2 9 2 23 0 30 -3 6 -5 -1 -5 -18z"/>
<path d="M7511 4004 c0 -11 3 -14 6 -6 3 7 2 16 -1 19 -3 4 -6 -2 -5 -13z"/>
<path d="M7575 3863 c-10 -58 -21 -303 -15 -348 3 -26 10 17 18 120 7 88 15
184 19 213 6 61 -11 73 -22 15z"/>
<path d="M7995 3843 c4 -32 13 -131 19 -221 7 -89 16 -166 21 -170 11 -10 -4
334 -18 396 -16 70 -31 67 -22 -5z"/>
<path d="M6120 3255 c0 -15 4 -24 10 -20 6 3 10 12 10 20 0 8 -4 17 -10 20 -6
4 -10 -5 -10 -20z"/>
<path d="M9453 3264 c-3 -8 -1 -20 6 -27 8 -8 11 -4 11 16 0 30 -7 35 -17 11z"/>
<path d="M7362 2629 c-1 -42 -4 -98 -7 -125 -5 -45 -4 -46 5 -16 6 18 9 74 7
125 l-3 92 -2 -76z"/>
<path d="M8222 2630 c0 -30 4 -84 8 -120 7 -64 7 -64 7 30 1 52 -3 106 -7 120
-6 19 -8 12 -8 -30z"/>
<path d="M6270 2138 c0 -166 -3 -304 -6 -307 -6 -7 -13 -8 -51 -10 -36 -1 -18
-17 29 -24 l37 -6 5 62 c3 34 8 145 11 247 3 102 9 203 13 225 6 35 11 40 42
47 19 4 150 3 290 -2 316 -12 400 -12 400 -2 0 4 -134 18 -297 30 -164 13
-322 28 -352 33 -30 5 -69 9 -87 9 l-33 0 -1 -302z"/>
<path d="M9268 2434 c-6 -5 -643 -64 -697 -64 -17 0 -22 -3 -15 -10 6 -6 123
-6 341 1 182 7 343 9 356 5 31 -7 35 -31 42 -256 3 -96 8 -208 11 -247 l6 -73
38 0 c21 0 42 5 45 10 3 6 -3 10 -15 10 -12 0 -30 5 -40 10 -18 10 -19 26 -19
307 0 231 -3 298 -13 305 -15 9 -32 10 -40 2z"/>
<path d="M7337 2413 c-2 -5 -4 -98 -5 -208 0 -110 -5 -220 -11 -245 -18 -76
-14 -163 8 -182 15 -12 17 -25 13 -67 -3 -34 -1 -51 7 -51 20 0 36 131 18 149
-9 9 -11 88 -9 312 2 269 -2 326 -21 292z"/>
<path d="M8232 2128 c2 -161 0 -305 -4 -319 -6 -20 -18 -30 -45 -37 l-38 -10
36 -1 c36 -1 36 -1 42 -53 10 -78 27 -85 27 -9 0 44 5 67 16 79 18 17 17 43
-5 297 -5 61 -7 159 -3 218 7 99 6 110 -11 118 -17 10 -17 -4 -15 -283z"/>
<path d="M7525 2226 c-8 -76 2 -216 16 -216 8 0 2 268 -6 278 -2 2 -6 -26 -10
-62z"/>
<path d="M8047 2145 c-6 -131 -5 -156 8 -143 11 11 17 213 8 248 -8 28 -11 9
-16 -105z"/>
<path d="M7398 1773 c6 -2 18 -2 25 0 6 3 1 5 -13 5 -14 0 -19 -2 -12 -5z"/>
<path d="M7527 1656 c4 -13 3 -17 -5 -12 -26 16 -27 -10 -23 -573 l1 -294 -52
-56 c-29 -31 -78 -86 -109 -121 -75 -87 -159 -119 -236 -89 -129 49 -411 88
-828 115 -349 22 -714 3 -893 -47 -71 -20 -185 -29 -199 -16 -3 4 -11 7 -17 7
-5 0 3 -14 20 -31 38 -40 155 -97 224 -109 30 -5 269 -14 530 -19 261 -6 603
-16 760 -23 218 -9 303 -9 356 0 82 14 151 41 182 74 139 144 277 301 298 336
51 87 82 392 64 637 -10 123 -23 176 -55 212 -18 20 -23 23 -18 9z"/>
<path d="M8046 1638 c-36 -42 -48 -106 -53 -298 -7 -210 17 -467 48 -530 9
-19 61 -86 115 -149 55 -63 118 -137 141 -165 93 -111 144 -122 533 -112 157
4 384 11 505 16 121 5 360 14 530 20 315 10 377 18 451 57 38 19 133 94 134
105 0 3 -24 -3 -52 -14 l-53 -20 -85 26 c-97 29 -226 52 -350 61 -91 7 -446 8
-520 1 -25 -2 -148 -9 -275 -15 -126 -6 -261 -13 -300 -15 -83 -4 -266 -48
-343 -82 -30 -13 -64 -24 -77 -24 -47 0 -148 90 -278 248 l-27 34 1 251 c0
139 4 277 8 307 10 65 -6 265 -23 297 l-12 23 -18 -22z"/>
<path d="M8300 1579 c0 -15 101 -131 108 -124 3 3 -13 26 -35 52 -21 27 -42
56 -46 66 -7 19 -27 23 -27 6z"/>
</g>
</svg>
